# xmcd
# 
# Track frame offsets:
#     150
#     17916
#     35835
#     61454
#     81575
#     99613
#     115326
#     133464
#     153005
# 
# Disc length: 2300
# 
# Revision: 4
# Processed by: cddbd v1.5.2PL0 Copyright (c) Steve Scherf et al.
# Submitted via: BonkEnc v1.0.8
# 
DISCID=7f08fa09
DTITLE=Albert King - I'm In A Phone Booth Baby
DYEAR=1984
DGENRE=Blues
TTITLE0=Phone Booth
TTITLE1=Dust My Broom
TTITLE2=The Sky Is Crying
TTITLE3=Brother, Go Ahead And Take Her
TTITLE4=Your Bread Ain't Done
TTITLE5=Firing Line
TTITLE6=The Game Goes On
TTITLE7=Truck Load Of Lovin'
TTITLE8=You Gotta Sacrifice
EXTD=© 2004\nLabel: Stax Records - Fantasy Inc.\nSCD24 8560-2\n24 BIT Remastered
EXTT0=
EXTT1=
EXTT2=
EXTT3=
EXTT4=
EXTT5=
EXTT6=
EXTT7=
EXTT8=
PLAYORDER=
